<svg width="24" height="444" viewBox="0 0 24 444" fill="none" xmlns="http://www.w3.org/2000/svg">
<path d="M5 1.76136L19.5455 1.76136L19.5455 3.52273L6.5625 3.52273L6.5625 10.2841L5 10.2841L5 1.76136ZM4.77273 17.358C4.77273 16.3068 5.00473 15.4001 5.46875 14.6378C5.9375 13.8802 6.59091 13.2955 7.42898 12.8835C8.27178 12.4763 9.25189 12.2727 10.3693 12.2727C11.4867 12.2727 12.4716 12.4763 13.3239 12.8835C14.1809 13.2955 14.8485 13.8684 15.3267 14.6023C15.8097 15.3409 16.0511 16.2027 16.0511 17.1875C16.0511 17.7557 15.9564 18.3168 15.767 18.8707C15.5777 19.4247 15.2699 19.929 14.8437 20.3835C14.4223 20.8381 13.8636 21.2003 13.1676 21.4702C12.4716 21.7401 11.6146 21.875 10.5966 21.875L9.88636 21.875L9.88636 13.4659L11.3352 13.4659L11.3352 20.1705C11.9508 20.1705 12.5 20.0473 12.983 19.8011C13.4659 19.5597 13.8471 19.214 14.1264 18.7642C14.4058 18.3191 14.5455 17.7936 14.5455 17.1875C14.5455 16.5199 14.3797 15.9422 14.0483 15.4545C13.7216 14.9716 13.2955 14.5999 12.7699 14.3395C12.2443 14.0791 11.6809 13.9489 11.0795 13.9489L10.1136 13.9489C9.28977 13.9489 8.59138 14.0909 8.01847 14.375C7.45028 14.6638 7.01704 15.0639 6.71875 15.5753C6.42519 16.0866 6.27841 16.6809 6.27841 17.358C6.27841 17.7983 6.33996 18.196 6.46307 18.5511C6.59091 18.911 6.7803 19.2211 7.03125 19.4815C7.28693 19.742 7.60417 19.9432 7.98295 20.0852L7.52841 21.7045C6.97917 21.5341 6.49621 21.2476 6.07954 20.8452C5.66761 20.4427 5.34564 19.9455 5.11364 19.3537C4.88636 18.7618 4.77273 18.0966 4.77273 17.358ZM4.74432 27.6349C4.74432 26.9437 4.87453 26.3163 5.13494 25.7528C5.40009 25.1894 5.78125 24.7419 6.27841 24.4105C6.7803 24.0791 7.38636 23.9134 8.09659 23.9134C8.72159 23.9134 9.22822 24.0365 9.61648 24.2827C10.0095 24.5289 10.3172 24.858 10.5398 25.2699C10.7623 25.6818 10.928 26.1364 11.0369 26.6335C11.1506 27.1354 11.2405 27.6397 11.3068 28.1463C11.392 28.8092 11.456 29.3466 11.4986 29.7585C11.5459 30.1752 11.6241 30.4782 11.733 30.6676C11.8419 30.8617 12.0312 30.9588 12.3011 30.9588L12.358 30.9588C13.0587 30.9588 13.6032 30.767 13.9915 30.3835C14.3797 30.0047 14.5739 29.4295 14.5739 28.6577C14.5739 27.8575 14.3987 27.2301 14.0483 26.7756C13.6979 26.321 13.3239 26.0014 12.9261 25.8168L13.4943 24.2259C14.1572 24.5099 14.6733 24.8887 15.0426 25.3622C15.4167 25.8404 15.6771 26.3613 15.8239 26.9247C15.9754 27.4929 16.0511 28.0516 16.0511 28.6009C16.0511 28.9512 16.0085 29.3537 15.9233 29.8082C15.8428 30.2675 15.6747 30.7102 15.419 31.1364C15.1634 31.5672 14.7775 31.9247 14.2614 32.2088C13.7453 32.4929 13.054 32.6349 12.1875 32.6349L5 32.6349L5 30.9588L6.47727 30.9588L6.47727 30.8736C6.24053 30.7599 5.98721 30.5705 5.71733 30.3054C5.44744 30.0402 5.2178 29.6875 5.02841 29.2472C4.83901 28.8068 4.74432 28.2694 4.74432 27.6349ZM6.25 27.8906C6.25 28.5535 6.38021 29.1122 6.64062 29.5668C6.90104 30.026 7.23721 30.3717 7.64915 30.6037C8.06108 30.8404 8.49432 30.9588 8.94886 30.9588L10.483 30.9588C10.3977 30.8878 10.3196 30.7315 10.2486 30.4901C10.1823 30.2533 10.1231 29.9787 10.071 29.6662C10.0237 29.3584 9.98106 29.0578 9.94318 28.7642C9.91004 28.4754 9.88163 28.241 9.85795 28.0611C9.80114 27.6255 9.70881 27.2183 9.58096 26.8395C9.45786 26.4654 9.27083 26.1624 9.01989 25.9304C8.77367 25.7031 8.4375 25.5895 8.01136 25.5895C7.42898 25.5895 6.98864 25.8049 6.69034 26.2358C6.39678 26.6714 6.25 27.223 6.25 27.8906ZM5 35.6942L15.9091 35.6942L15.9091 37.3136L14.2614 37.3136L14.2614 37.4272C14.8011 37.6261 15.2391 37.9859 15.5753 38.5067C15.9115 39.0276 16.0795 39.6147 16.0795 40.2681C16.0795 40.3912 16.0772 40.5451 16.0724 40.7298C16.0677 40.9144 16.0606 41.0541 16.0511 41.1488L14.3466 41.1488C14.3608 41.092 14.3821 40.9618 14.4105 40.7582C14.4437 40.5593 14.4602 40.3486 14.4602 40.1261C14.4602 39.5958 14.349 39.1223 14.1264 38.7056C13.9086 38.2937 13.6056 37.967 13.2173 37.7255C12.8338 37.4888 12.3958 37.3704 11.9034 37.3704L5 37.3704L5 35.6942ZM11.5625 44.8118L5 44.8118L5 43.1357L15.9091 43.1357L15.9091 44.755L14.2045 44.755L14.2045 44.897C14.7585 45.1527 15.2036 45.541 15.5398 46.0618C15.8807 46.5826 16.0511 47.255 16.0511 48.0788C16.0511 48.8175 15.8996 49.4638 15.5966 50.0178C15.2983 50.5717 14.8437 51.0026 14.233 51.3104C13.6269 51.6181 12.8598 51.772 11.9318 51.772L5 51.772L5 50.0959L11.8182 50.0959C12.6752 50.0959 13.3428 49.8733 13.821 49.4283C14.304 48.9832 14.5455 48.3724 14.5455 47.5959C14.5455 47.0608 14.4294 46.5826 14.1974 46.1612C13.9654 45.7446 13.6269 45.4155 13.1818 45.174C12.7367 44.9325 12.197 44.8118 11.5625 44.8118ZM5 60.4599L15.9091 60.4599L15.9091 62.0792L14.2045 62.0792L14.2045 62.2212C14.7869 62.4485 15.2391 62.8155 15.5611 63.3221C15.8878 63.8287 16.0511 64.4371 16.0511 65.1474C16.0511 65.8671 15.8878 66.466 15.5611 66.9442C15.2391 67.4272 14.7869 67.8036 14.2045 68.0735L14.2045 68.1871C14.768 68.4665 15.2154 68.8855 15.5469 69.4442C15.883 70.003 16.0511 70.6729 16.0511 71.4542C16.0511 72.4296 15.7457 73.2274 15.1349 73.8477C14.5289 74.4679 13.5843 74.7781 12.3011 74.7781L5 74.7781L5 73.1019L12.3011 73.1019C13.1061 73.1019 13.6813 72.8817 14.027 72.4414C14.3726 72.0011 14.5455 71.4826 14.5455 70.886C14.5455 70.119 14.3134 69.5247 13.8494 69.1033C13.3901 68.6819 12.8078 68.4712 12.1023 68.4712L5 68.4712L5 66.7667L12.4716 66.7667C13.0919 66.7667 13.5914 66.5655 13.9702 66.163C14.3537 65.7605 14.5455 65.2421 14.5455 64.6076C14.5455 64.172 14.4294 63.7648 14.1974 63.386C13.9654 63.012 13.6435 62.7089 13.2315 62.4769C12.8243 62.2496 12.3532 62.136 11.8182 62.136L5 62.136L5 60.4599ZM4.77272 82.2745C4.77272 81.2897 5.0071 80.4255 5.47585 79.6822C5.9446 78.9435 6.60038 78.3659 7.44318 77.9492C8.28598 77.5373 9.27083 77.3313 10.3977 77.3313C11.5341 77.3313 12.526 77.5373 13.3736 77.9492C14.2211 78.3659 14.8793 78.9435 15.348 79.6822C15.8168 80.4255 16.0511 81.2897 16.0511 82.2745C16.0511 83.2594 15.8168 84.1211 15.348 84.8597C14.8793 85.6031 14.2211 86.1808 13.3736 86.5927C12.526 87.0094 11.5341 87.2177 10.3977 87.2177C9.27083 87.2177 8.28598 87.0094 7.44318 86.5927C6.60038 86.1808 5.9446 85.6031 5.47585 84.8597C5.0071 84.1211 4.77272 83.2594 4.77272 82.2745ZM6.27841 82.2745C6.27841 83.0226 6.47017 83.6381 6.85369 84.1211C7.23721 84.604 7.74147 84.9615 8.36647 85.1935C8.99147 85.4255 9.66856 85.5415 10.3977 85.5415C11.1269 85.5415 11.8063 85.4255 12.4361 85.1935C13.0658 84.9615 13.5748 84.604 13.9631 84.1211C14.3513 83.6381 14.5455 83.0226 14.5455 82.2745C14.5455 81.5264 14.3513 80.9109 13.9631 80.4279C13.5748 79.945 13.0658 79.5875 12.4361 79.3555C11.8063 79.1235 11.1269 79.0075 10.3977 79.0075C9.66856 79.0075 8.99147 79.1235 8.36647 79.3555C7.74147 79.5875 7.23721 79.945 6.85369 80.4279C6.47017 80.9109 6.27841 81.5264 6.27841 82.2745ZM5 89.7763L15.9091 89.7763L15.9091 91.3956L14.2614 91.3956L14.2614 91.5092C14.8011 91.7081 15.2391 92.0679 15.5753 92.5888C15.9115 93.1096 16.0795 93.6967 16.0795 94.3501C16.0795 94.4732 16.0772 94.6271 16.0724 94.8118C16.0677 94.9964 16.0606 95.1361 16.0511 95.2308L14.3466 95.2308C14.3608 95.174 14.3821 95.0438 14.4105 94.8402C14.4437 94.6413 14.4602 94.4306 14.4602 94.2081C14.4602 93.6778 14.349 93.2043 14.1264 92.7876C13.9086 92.3757 13.6056 92.049 13.2173 91.8075C12.8338 91.5708 12.3958 91.4524 11.9034 91.4524L5 91.4524L5 89.7763ZM4.77272 101.46C4.77272 100.408 5.00473 99.5017 5.46875 98.7393C5.9375 97.9818 6.5909 97.397 7.42897 96.9851C8.27178 96.5779 9.25189 96.3743 10.3693 96.3743C11.4867 96.3743 12.4716 96.5779 13.3239 96.9851C14.1809 97.397 14.8485 97.9699 15.3267 98.7038C15.8097 99.4425 16.0511 100.304 16.0511 101.289C16.0511 101.857 15.9564 102.418 15.767 102.972C15.5776 103.526 15.2699 104.031 14.8437 104.485C14.4223 104.94 13.8636 105.302 13.1676 105.572C12.4716 105.842 11.6146 105.977 10.5966 105.977L9.88636 105.977L9.88636 97.5675L11.3352 97.5675L11.3352 104.272C11.9508 104.272 12.5 104.149 12.983 103.903C13.4659 103.661 13.8471 103.316 14.1264 102.866C14.4058 102.421 14.5455 101.895 14.5455 101.289C14.5455 100.621 14.3797 100.044 14.0483 99.5561C13.7216 99.0732 13.2955 98.7015 12.7699 98.4411C12.2443 98.1806 11.6809 98.0504 11.0795 98.0504L10.1136 98.0504C9.28977 98.0504 8.59138 98.1925 8.01846 98.4766C7.45028 98.7654 7.01704 99.1655 6.71875 99.6768C6.42518 100.188 6.2784 100.782 6.2784 101.46C6.2784 101.9 6.33996 102.298 6.46306 102.653C6.5909 103.013 6.7803 103.323 7.03125 103.583C7.28693 103.844 7.60416 104.045 7.98295 104.187L7.5284 105.806C6.97916 105.636 6.49621 105.349 6.07954 104.947C5.66761 104.544 5.34564 104.047 5.11363 103.455C4.88636 102.863 4.77272 102.198 4.77272 101.46Z" fill="#1C464F"/>
<line x1="11.5" y1="126" x2="11.5" y2="444" stroke="#1C464F"/>
</svg>
